<svg width="71" height="75" viewBox="0 0 71 75" fill="none" xmlns="http://www.w3.org/2000/svg">
<mask id="mask0_474_29" style="mask-type:luminance" maskUnits="userSpaceOnUse" x="0" y="0" width="71" height="75">
<path d="M70.9302 0L0 0L0 75L70.9302 75L70.9302 0Z" fill="white"/>
</mask>
<g mask="url(#mask0_474_29)">
<path fill-rule="evenodd" clip-rule="evenodd" d="M35.4652 37.5C35.4652 37.5 31.5506 24.7561 26.3283 17.8069C21.1061 10.8577 15.3188 6.52969 13.4018 8.14035C11.4849 9.75092 14.1644 16.69 19.3867 23.6392C24.609 30.5885 35.4652 37.5 35.4652 37.5ZM35.4652 37.5C35.4652 37.5 46.7556 43.5843 55.0954 44.5938C63.4354 45.6031 70.4218 44.3361 70.7005 41.7641C70.9786 39.1921 64.4436 36.2887 56.1036 35.2794C47.7638 34.2704 35.4652 37.5 35.4652 37.5ZM35.4652 37.5C35.4652 37.5 42.0018 26.0208 48.5739 20.499C55.146 14.9771 61.7085 12.1438 63.2317 14.1707C64.755 16.1976 60.6618 22.317 54.0898 27.8389C47.5177 33.3607 35.4652 37.5 35.4652 37.5ZM35.4652 37.5C35.4652 37.5 29.711 49.4383 28.7564 58.2565C27.8019 67.075 29 74.4624 31.4326 74.7569C33.865 75.0511 36.6108 68.1411 37.5652 59.3226C38.5197 50.5041 35.4652 37.5 35.4652 37.5ZM35.4652 37.5C35.4893 37.5152 46.3273 44.4193 51.5437 51.3609C56.7659 58.31 59.4456 65.249 57.5286 66.8597C55.6118 68.4703 49.8243 64.1423 44.6021 57.1932C39.3799 50.2441 35.4652 37.5 35.4652 37.5ZM35.4652 37.5C35.4652 37.5 23.4129 41.6392 16.8407 47.1611C10.2685 52.683 6.17552 58.8025 7.69869 60.8294C9.22195 62.8564 15.7844 60.023 22.3565 54.5011C28.9287 48.9791 35.4652 37.5 35.4652 37.5ZM35.4652 37.5C35.4652 37.5 41.2194 25.5619 42.174 16.7434C43.1286 7.92491 41.9303 0.537648 39.498 0.243162C37.0654 -0.0511194 34.3197 6.85899 33.3651 15.6775C32.4108 24.4957 35.4652 37.5 35.4652 37.5ZM15.8349 30.4063C24.1749 31.4156 35.4652 37.5 35.4652 37.5C35.4652 37.5 23.1667 40.7298 14.8268 39.7205C6.48686 38.7112 -0.0482755 35.808 0.230098 33.236C0.508521 30.6639 7.49504 29.397 15.8349 30.4063Z" fill="url(#paint0_radial_474_29)"/>
</g>
<defs>
<radialGradient id="paint0_radial_474_29" cx="0" cy="0" r="1" gradientTransform="matrix(-3.01586 30.1946 -28.5562 -3.1889 33.412 34.3157)" gradientUnits="userSpaceOnUse">
<stop offset="0.0509862" stop-color="#133F9C"/>
<stop offset="1" stop-color="#1B62F0"/>
</radialGradient>
</defs>
</svg>
